<svg width="32" height="32" viewBox="0 0 32 32" fill="none" xmlns="http://www.w3.org/2000/svg">
<path d="M7 15H27C27.2652 15 27.5196 15.1054 27.7071 15.2929C27.8946 15.4804 28 15.7348 28 16C28 16.2652 27.8946 16.5196 27.7071 16.7071C27.5196 16.8946 27.2652 17 27 17H7C6.73478 17 6.48043 16.8946 6.29289 16.7071C6.10536 16.5196 6 16.2652 6 16C6 15.7348 6.10536 15.4804 6.29289 15.2929C6.48043 15.1054 6.73478 15 7 15Z" fill="black"/>
<path d="M7.41396 16L15.708 24.292C15.8957 24.4798 16.0012 24.7344 16.0012 25C16.0012 25.2655 15.8957 25.5202 15.708 25.708C15.5202 25.8958 15.2655 26.0012 15 26.0012C14.7344 26.0012 14.4797 25.8958 14.292 25.708L5.29196 16.708C5.19883 16.6151 5.12494 16.5047 5.07453 16.3832C5.02412 16.2618 4.99817 16.1315 4.99817 16C4.99817 15.8684 5.02412 15.7382 5.07453 15.6167C5.12494 15.4952 5.19883 15.3849 5.29196 15.292L14.292 6.29198C14.4797 6.10421 14.7344 5.99872 15 5.99872C15.2655 5.99872 15.5202 6.10421 15.708 6.29198C15.8957 6.47975 16.0012 6.73443 16.0012 6.99998C16.0012 7.26553 15.8957 7.52021 15.708 7.70798L7.41396 16Z" fill="black"/>
</svg>
